<svg xmlns="http://www.w3.org/2000/svg" xmlns:xlink="http://www.w3.org/1999/xlink" version="1.1" style="enable-background:new 0 0 512 512;" xml:space="preserve" width="512" height="512"><rect id="backgroundrect" width="100%" height="100%" x="0" y="0" fill="none" stroke="none"/>

















<g class="currentLayer" style=""><title>Layer 1</title><g id="svg_1" class="" fill-opacity="1" fill="#660000">
	<g id="svg_2" fill="#660000">
		<polygon points="315.149,247.512 313.764,256.374 324.486,256.374 325.871,247.512   " id="svg_3" fill="#660000"/>
	</g>
</g><g id="svg_4" class="" fill-opacity="1" fill="#660000">
	<g id="svg_5" fill="#660000">
		<path d="M505.749,5.69954942369461 C501.75,1.6975494236946105 496.323,-0.5494505763053894 490.664,-0.5494505763053894 L21.33,-0.5194505763053894 C9.55,-0.5184505763053894 0,9.03054942369461 0,20.81354942369461 v469.303 C0,501.8985494236946 9.55,511.4505494236946 21.333,511.4505494236946 h469.333 c11.782,0 21.333,-9.552 21.333,-21.333 V20.78354942369461 C512,15.12454942369461 509.751,9.699549423694611 505.749,5.69954942369461 zM185.033,335.66354942369463 c-31.142,0 -49.737,-19.085 -49.737,-51.052 v-58.507 c0,-31.378 19.275,-50.87 50.303,-50.87 c32.526,0 49.544,21.222 49.544,42.186 c0,16.441 -11.814,18.216 -16.895,18.216 c-10.934,0 -16.35,-7.347 -16.866,-14.63 c-0.006000000000000002,-0.08700000000000002 -0.011000000000000003,-0.17200000000000001 -0.016000000000000004,-0.259 c-0.42000000000000004,-8.996 -4.9879999999999995,-12.665000000000001 -15.768,-12.665000000000001 c-10.458,0 -16.511,2.948 -16.511,18.022 v58.507 c0.0010000000000000002,13.444 4.517,18.21 17.267,18.21 c13.35,0 14.003,-5.221 15.083,-13.871 c1.084,-8.658 7.68,-14.252 16.811,-14.252 c5.08,0 16.895,1.7930000000000001 16.895,18.405 C235.143,314.25254942369463 217.93,335.66354942369463 185.033,335.66354942369463 zM370.606,246.9625494236946 h-11.686 l-1.439,8.86 h5.953 c8.341,0 15.388,7.132 15.388,15.573 c0,8.484 -6.564,15.386 -14.63,15.386 h-11.817 l-4.447,28.534 c-0.05000000000000001,0.31600000000000006 -0.11100000000000002,0.6260000000000001 -0.18900000000000003,0.934 c-1.711,6.875 -8.286,11.864 -15.633000000000001,11.864 c-9.263,0 -16.519,-7.09 -16.519,-16.141 c0,-0.539 0.04100000000000001,-1.078 0.12200000000000001,-1.61 l3.6,-23.582 h-10.58 l-4.439,28.355 c-1.199,8.381 -8.954,12.978 -15.635,12.978 c-9.261,0 -16.516,-7.09 -16.516,-16.141 c0,-0.521 0.038000000000000006,-1.04 0.11400000000000002,-1.556 l3.483,-23.636 h-5.575 c-8.805,0 -15.198,-6.471 -15.198,-15.386 c0,-8.734 6.345,-15.573 14.441,-15.573 h11.575 l1.331,-8.86 h-5.7330000000000005 c-8.805,0 -15.198,-6.551 -15.198,-15.576 c0,-8.626 6.345,-15.383000000000001 14.441,-15.383000000000001 h11.649000000000001 l4.049,-25.543 c0.03400000000000001,-0.22000000000000003 0.07700000000000001,-0.43900000000000006 0.127,-0.6570000000000001 c1.469,-6.5760000000000005 7.689,-11.17 15.128,-11.17 c9.523,0 16.705,6.939 16.705,16.141 c0,0.5630000000000001 -0.04400000000000001,1.126 -0.134,1.6840000000000002 l-3.123,19.547 h10.887 l4.049,-25.543 c0.03400000000000001,-0.21500000000000002 0.07500000000000001,-0.42800000000000005 0.12100000000000001,-0.6400000000000001 c1.461,-6.586 7.683,-11.187 15.134,-11.187 c9.522,0 16.705,6.939 16.705,16.141 c0,0.5630000000000001 -0.04400000000000001,1.126 -0.134,1.6840000000000002 l-3.123,19.547 h5.99 c8.339,0 15.383000000000001,7.044 15.383000000000001,15.383000000000001 C385.236,239.97554942369462 378.672,246.9625494236946 370.606,246.9625494236946 z" id="svg_6" fill="#660000"/>
	</g>
</g><g id="svg_7">
</g><g id="svg_8">
</g><g id="svg_9">
</g><g id="svg_10">
</g><g id="svg_11">
</g><g id="svg_12">
</g><g id="svg_13">
</g><g id="svg_14">
</g><g id="svg_15">
</g><g id="svg_16">
</g><g id="svg_17">
</g><g id="svg_18">
</g><g id="svg_19">
</g><g id="svg_20">
</g><g id="svg_21">
</g></g></svg>