<svg xmlns="http://www.w3.org/2000/svg" xmlns:sketch="http://www.bohemiancoding.com/sketch/ns" xmlns:xlink="http://www.w3.org/1999/xlink" height="16" version="1.1" width="20"><rect id="backgroundrect" width="100%" height="100%" x="0" y="0" fill="none" stroke="none"/><title/><desc/><defs/><g class="currentLayer" style=""><title>Layer 1</title><g fill="#660000" fill-rule="evenodd" id="Page-1" stroke="none" stroke-width="1" class="selected" fill-opacity="1"><g fill="#660000" id="Icons-Communication"><g id="gmail" fill="#660000"><path d="M18,0 L2,0 C0.9,0 0,0.9000000000000057 0,2 L0,14 C0,15.099999999999994 0.9,16 2,16 L18,16 C19.1,16 20,15.099999999999994 20,14 L20,2 C20,0.9000000000000057 19.1,0 18,0 L18,0 zM18,14 L16,14 L16,5.200000000000003 L10,9 L4,5.200000000000003 L4,14 L2,14 L2,2 L3.2,2 L10,6.200000000000003 L16.8,2 L18,2 L18,14 L18,14 z" id="Shape" fill="#660000"/></g></g></g></g></svg>