<svg xmlns="http://www.w3.org/2000/svg" height="512" width="512"><rect id="backgroundrect" width="100%" height="100%" x="0" y="0" fill="none" stroke="none"/><g class="currentLayer" style=""><title>Layer 1</title><path d="m0 512h512v-362h-512zm278-293.308594h30v88.308594h60v-90h30v120h-45v78h-30v-78h-45zm-158-.691406h60c33.085938 0 60 26.914062 60 60s-26.914062 60-60 60h-30v76h-30zm0 0" id="svg_1" class="" fill-opacity="1" fill="#660000"/><path d="m210 278c0-16.542969-13.457031-30-30-30h-30v60h30c16.542969 0 30-13.457031 30-30zm0 0" id="svg_2" class="selected" fill-opacity="1" fill="#660000"/><path d="m0 0v120h512v-90h-256l-44-30zm90 90h-30v-30h30zm60 0h-30v-30h30zm60 0h-30v-30h30zm0 0" id="svg_3" class="" fill-opacity="1" fill="#660000"/></g></svg>